<?xml version="1.0" encoding="UTF-8"?>
<svg width="19px" height="20px" viewBox="0 0 19 20" version="1.1" xmlns="http://www.w3.org/2000/svg" xmlns:xlink="http://www.w3.org/1999/xlink">
    <!-- Generator: Sketch 63.1 (92452) - https://sketch.com -->
    <title>icon-search-active</title>
    <desc>Created with Sketch.</desc>
    <g id="Page-1" stroke="none" stroke-width="1" fill="none" fill-rule="evenodd">
        <g id="03_320_Navigation_Active_Search" transform="translate(-27.000000, -148.000000)" fill="#000000" fill-rule="nonzero">
            <g id="Search-Bar" transform="translate(15.000000, 140.000000)">
                <path d="M19.23539,8.06485694 C23.2313856,8.06485694 26.47078,11.3905186 26.47078,15.4929302 C26.47078,17.4825998 25.7087934,19.2895584 24.4680676,20.6230156 C24.4949868,20.6410392 24.5206301,20.6621289 24.5447958,20.6856677 L24.5559397,20.6968116 L24.5559397,20.6968116 L30.570396,26.8714368 C30.8094641,27.1168715 30.8094641,27.5080915 30.570396,27.7535262 C30.3392868,27.9907899 29.9595956,27.9957792 29.7223318,27.76467 C29.7185685,27.7610044 29.7148536,27.7572894 29.7111879,27.7535262 L23.6967317,21.5789009 C23.6517141,21.5326846 23.6151736,21.4812989 23.5871101,21.4266907 C22.3774665,22.3647139 20.8697073,22.9210034 19.23539,22.9210034 C15.2393944,22.9210034 12,19.5953417 12,15.4929302 C12,11.3905186 15.2393944,8.06485694 19.23539,8.06485694 Z M19.23539,9.19891392 C15.8494701,9.19891392 13.1046397,12.016841 13.1046397,15.4929302 C13.1046397,18.9690193 15.8494701,21.7869464 19.23539,21.7869464 C22.6213099,21.7869464 25.3661403,18.9690193 25.3661403,15.4929302 C25.3661403,12.016841 22.6213099,9.19891392 19.23539,9.19891392 Z" id="icon-search-active"></path>
            </g>
        </g>
    </g>
</svg>